<?xml version="1.0" standalone="no"?>
<!DOCTYPE svg PUBLIC "-//W3C//DTD SVG 20010904//EN"
 "http://www.w3.org/TR/2001/REC-SVG-20010904/DTD/svg10.dtd">
<svg version="1.0" xmlns="http://www.w3.org/2000/svg"
 width="598.000000pt" height="541.000000pt" viewBox="0 0 598.000000 541.000000"
 preserveAspectRatio="xMidYMid meet">
<metadata>
Created by potrace 1.13, written by Peter Selinger 2001-2015
</metadata>
<g transform="translate(0.000000,541.000000) scale(0.100000,-0.100000)"
fill="#000000" stroke="none">
<path d="M1499 4559 c-800 -468 -1464 -862 -1476 -875 -28 -30 -30 -83 -5
-112 9 -11 672 -411 1472 -888 1154 -688 1462 -867 1490 -868 29 -1 277 142
1500 867 806 478 1473 878 1483 889 24 29 22 82 -5 112 -37 39 -2944 1726
-2977 1726 -18 0 -505 -279 -1482 -851z m2790 -178 l1292 -754 -38 -22 c-21
-12 -606 -351 -1300 -753 l-1262 -731 -1293 749 c-711 412 -1294 753 -1295
757 -3 10 2578 1514 2593 1510 6 -1 592 -341 1303 -756z"/>
<path d="M5445 2965 c-24 -23 -27 -32 -22 -71 2 -25 13 -54 22 -64 10 -11 67
-47 127 -81 60 -34 106 -65 101 -69 -4 -4 -611 -350 -1347 -769 -1310 -746
-1340 -763 -1365 -748 -14 8 -620 353 -1346 767 -726 414 -1321 753 -1322 754
-1 1 45 28 104 60 86 48 108 65 119 92 26 62 -20 128 -88 126 -32 -1 -341
-181 -375 -219 -30 -32 -30 -84 0 -117 30 -33 2884 -1676 2923 -1683 28 -5
204 94 1475 826 794 458 1455 843 1469 856 16 17 24 36 24 60 0 49 -19 66
-224 191 -199 121 -233 132 -275 89z"/>
<path d="M250 1929 c-102 -60 -193 -119 -202 -131 -25 -29 -23 -82 5 -112 12
-14 668 -398 1457 -853 1247 -720 1440 -828 1475 -828 35 0 228 108 1489 835
1554 896 1483 851 1469 922 -7 38 -27 53 -227 172 -127 75 -188 106 -211 106
-43 0 -75 -35 -75 -83 0 -65 16 -83 136 -149 63 -34 110 -65 106 -69 -9 -9
-2658 -1518 -2676 -1525 -8 -3 -620 340 -1360 762 l-1346 767 118 65 c64 35
125 73 135 84 26 31 22 93 -8 123 -46 47 -79 37 -285 -86z"/>
</g>
</svg>
